<svg width="18" height="21" viewBox="0 0 18 21" fill="none" xmlns="http://www.w3.org/2000/svg">
<path d="M5.13312 10.2705C7.96738 10.2705 10.2662 7.97163 10.2662 5.13737C10.2662 2.3031 7.96738 0 5.13312 0C2.29885 0 0 2.29885 0 5.13312C0 7.96738 2.29885 10.2705 5.13312 10.2705ZM3.33992 7.16427C3.38667 6.9943 3.43341 6.82857 3.4844 6.6586C3.54389 6.46314 3.59913 6.44189 3.7776 6.53537C4.08355 6.6926 4.40649 6.78183 4.74643 6.82432C4.96315 6.84982 5.17986 6.82857 5.37957 6.73934C5.75776 6.57362 5.81725 6.13594 5.49855 5.87249C5.38807 5.78325 5.26484 5.71527 5.13737 5.66002C4.80592 5.51555 4.46173 5.40507 4.14729 5.2181C3.64162 4.9164 3.31868 4.49573 3.35692 3.87958C3.39941 3.1827 3.7946 2.74503 4.43199 2.51557C4.69544 2.41783 4.69544 2.42208 4.69969 2.14588C4.69969 2.0524 4.69969 1.95891 4.69969 1.86543C4.70394 1.65721 4.74218 1.62322 4.94615 1.61472C5.00989 1.61472 5.07363 1.61472 5.13737 1.61472C5.57929 1.61472 5.57929 1.61472 5.57929 2.05665C5.57929 2.36684 5.57929 2.37109 5.88949 2.41783C6.12745 2.45608 6.35266 2.52407 6.57362 2.6218C6.69685 2.67704 6.73934 2.76202 6.70535 2.8895C6.6501 3.08072 6.59911 3.27194 6.53537 3.4589C6.47588 3.63737 6.42064 3.66287 6.25067 3.58213C5.90648 3.41641 5.54529 3.34417 5.16286 3.36542C5.06088 3.36967 4.96739 3.38242 4.87391 3.42491C4.54672 3.56939 4.49148 3.93057 4.77193 4.15578C4.91215 4.27051 5.07363 4.35125 5.2436 4.41924C5.53255 4.53822 5.82575 4.6572 6.1062 4.81017C6.9858 5.29884 7.22376 6.40365 6.60336 7.15577C6.37815 7.42772 6.0892 7.61044 5.74501 7.70392C5.59629 7.74642 5.5283 7.8229 5.5368 7.97588C5.54529 8.12885 5.5368 8.27757 5.5368 8.43055C5.5368 8.56652 5.46881 8.63876 5.33283 8.64301C5.17136 8.64726 5.00564 8.64726 4.84417 8.64301C4.69969 8.63876 4.6317 8.55803 4.6317 8.4178C4.6317 8.30732 4.6317 8.19684 4.62745 8.08636C4.6232 7.84415 4.61895 7.8314 4.381 7.79316C4.0793 7.74642 3.7861 7.67843 3.5099 7.54245C3.30168 7.44472 3.28044 7.38948 3.33992 7.16427Z" fill="#00AC4E"/>
<path d="M16.6484 10.6997H16.0492C15.654 9.48862 14.8807 8.41355 13.8481 7.58069C13.8481 7.54245 13.8396 7.49996 13.8311 7.46172C13.6144 6.7011 13.8821 6.00847 14.1923 5.5113C14.409 5.16286 14.1285 4.71669 13.7206 4.76768C12.807 4.88241 12.1781 5.2181 11.7447 5.59629C11.4472 5.85549 11.2348 6.20393 11.1413 6.59062C10.4869 9.30165 8.04358 11.3201 5.13283 11.3201C3.71783 11.3201 2.41755 10.8441 1.37648 10.0453C1.01529 10.8271 0.819824 11.6812 0.819824 12.5778C0.819824 13.0623 0.879314 13.5339 0.989795 13.9886C0.989795 13.9886 0.989795 13.9971 0.994044 14.0098C1.10877 14.4815 1.28299 14.9362 1.50396 15.3654C1.79716 15.9985 2.22208 16.7379 2.80848 17.337C3.65409 18.2081 3.79856 19.2874 3.81981 19.7549V19.9546C3.81981 19.9631 3.81981 19.9716 3.81981 19.9801C3.81981 19.9843 3.81981 19.9843 3.81981 19.9843C3.83681 20.2138 4.02802 20.3965 4.26173 20.3965H6.94727C7.18948 20.3965 7.38919 20.201 7.38919 19.9546V19.2917C7.78013 19.3427 8.17956 19.3724 8.58324 19.3724C8.90193 19.3724 9.21213 19.3554 9.52233 19.3214V19.9546C9.52233 20.1968 9.71779 20.3965 9.96425 20.3965H12.6583C12.9005 20.3965 13.1002 20.201 13.1002 19.9546V19.2917C13.1045 19.0707 13.1809 18.1911 14.0138 17.439C14.0435 17.4135 14.0733 17.388 14.103 17.3625C14.1115 17.354 14.12 17.3498 14.1285 17.3413C15.0549 16.5169 15.739 15.4886 16.0917 14.3413H16.6568C17.1073 14.3413 17.4727 13.9758 17.4727 13.5254V11.5155C17.4642 11.0651 17.0988 10.6997 16.6484 10.6997ZM13.2872 10.8441C12.9175 10.8441 12.62 10.5467 12.62 10.177C12.62 9.80731 12.9175 9.50986 13.2872 9.50986C13.6569 9.50986 13.9543 9.80731 13.9543 10.177C13.9543 10.5467 13.6569 10.8441 13.2872 10.8441Z" fill="#00AC4E"/>
</svg>
