<svg width="28" height="28" viewBox="0 0 28 28" fill="none" xmlns="http://www.w3.org/2000/svg">
<path fill-rule="evenodd" clip-rule="evenodd" d="M18.4204 17.1393L15.1137 13.8141L18.439 10.5073C18.7454 10.2026 18.7463 9.70791 18.4421 9.40198C18.1378 9.09606 17.6432 9.09412 17.3367 9.39889L14.0114 12.7056L10.7047 9.38033C10.4005 9.0744 9.90584 9.07247 9.59936 9.37724C9.29288 9.68201 9.29205 10.1766 9.59627 10.4826L12.903 13.8079L9.57771 17.1146C9.27122 17.4194 9.27039 17.914 9.57461 18.2199C9.87883 18.5259 10.3735 18.5278 10.6799 18.223L14.0052 14.9163L17.312 18.2416C17.6162 18.5475 18.1108 18.5495 18.4173 18.2447C18.7238 17.9399 18.7246 17.4453 18.4204 17.1393Z" fill="black"/>
<mask id="mask0_89_1027" style="mask-type:alpha" maskUnits="userSpaceOnUse" x="9" y="9" width="10" height="10">
<path fill-rule="evenodd" clip-rule="evenodd" d="M18.4204 17.1393L15.1137 13.8141L18.439 10.5073C18.7454 10.2026 18.7463 9.70791 18.4421 9.40198C18.1378 9.09606 17.6432 9.09412 17.3367 9.39889L14.0114 12.7056L10.7047 9.38033C10.4005 9.0744 9.90584 9.07247 9.59936 9.37724C9.29288 9.68201 9.29205 10.1766 9.59627 10.4826L12.903 13.8079L9.57771 17.1146C9.27122 17.4194 9.27039 17.914 9.57461 18.2199C9.87883 18.5259 10.3735 18.5278 10.6799 18.223L14.0052 14.9163L17.312 18.2416C17.6162 18.5475 18.1108 18.5495 18.4173 18.2447C18.7238 17.9399 18.7246 17.4453 18.4204 17.1393Z" fill="white"/>
</mask>
<g mask="url(#mask0_89_1027)">
<rect x="14.0455" y="0.546875" width="18.7583" height="18.7583" transform="rotate(45.1603 14.0455 0.546875)" fill="#00AC4E"/>
</g>
</svg>
