<svg width="18" height="14" viewBox="0 0 18 14" fill="none" xmlns="http://www.w3.org/2000/svg">
<path d="M14.6854 10.7529C13.8045 10.7529 13.0879 11.4705 13.0879 12.3528C13.0879 13.2355 13.8045 13.9535 14.6854 13.9535C15.5667 13.9535 16.2831 13.2355 16.2831 12.3528C16.2831 11.4705 15.5667 10.7529 14.6854 10.7529Z" fill="#00AC4E"/>
<path d="M3.91288 10.7529C3.03155 10.7529 2.31494 11.4705 2.31494 12.3528C2.31494 13.2355 3.03155 13.9535 3.91288 13.9535C4.79373 13.9535 5.51034 13.2355 5.51034 12.3528C5.5104 11.4705 4.79379 10.7529 3.91288 10.7529Z" fill="#00AC4E"/>
<path d="M15.5867 4.03159C15.5024 3.77759 15.2647 3.60596 14.9969 3.60596H14.2417V6.2622H16.3256L15.5867 4.03159Z" fill="#00AC4E"/>
<path d="M17.5884 7.25635H14.2417V9.79744C14.3859 9.77271 14.5341 9.75883 14.6852 9.75883C16.0205 9.75883 17.1231 10.7752 17.2619 12.0755H17.3789C17.7217 12.0755 17.9999 11.7973 17.9999 11.454V7.84053C17.9999 7.57089 17.828 7.34253 17.5884 7.25635Z" fill="#00AC4E"/>
<path d="M13.2242 0.667841C13.2242 0.324569 12.946 0.0463867 12.6031 0.0463867H0.62103C0.278182 0.0463867 0 0.324508 0 0.667841V11.4541C0 11.7974 0.278182 12.0755 0.62103 12.0755H1.33618C1.47503 10.7752 2.57751 9.75887 3.91309 9.75887C5.24818 9.75887 6.35048 10.7752 6.48933 12.0755H11.3939H12.109C12.1927 11.2926 12.6255 10.6135 13.2482 10.1963L13.2242 0.667841Z" fill="#00AC4E"/>
</svg>
