<svg width="10" height="10" viewBox="0 0 10 10" fill="none" xmlns="http://www.w3.org/2000/svg">
<path fill-rule="evenodd" clip-rule="evenodd" d="M2.82952 3.35297C2.82952 1.56967 4.27517 0.124023 6.05847 0.124023C7.84177 0.124023 9.28742 1.56967 9.28742 3.35297C9.28742 5.13627 7.84177 6.58192 6.05847 6.58192H5.13591V7.50448H4.21335V8.42704H3.29079V9.3496H0.0618439V6.85213L2.89779 4.01619C2.85256 3.79971 2.82952 3.57776 2.82952 3.35297ZM4.21335 6.58212V5.65956H6.05847C7.33225 5.65956 8.36486 4.62696 8.36486 3.35317C8.36486 2.07938 7.33225 1.04678 6.05847 1.04678C4.78468 1.04678 3.75207 2.07938 3.75207 3.35317C3.75207 3.58318 3.7856 3.80817 3.85082 4.02335L3.931 4.28787L0.984401 7.23447V8.42723H2.36824V7.50468H3.29079V6.58212H4.21335ZM5.13591 3.35317C5.13591 3.86268 5.54895 4.27573 6.05847 4.27573C6.56798 4.27573 6.98102 3.86268 6.98102 3.35317C6.98102 2.84366 6.56798 2.43061 6.05847 2.43061C5.54895 2.43061 5.13591 2.84366 5.13591 3.35317Z" fill="#C6C6C6"/>
</svg>
