<svg width="16" height="11" viewBox="0 0 16 11" fill="none" xmlns="http://www.w3.org/2000/svg">
<path d="M0 0V10.0465H16V0H0ZM1.11628 1.11628H2.911C2.70084 2.00228 2.00228 2.70084 1.11628 2.911V1.11628ZM1.11628 8.93022V7.1355C2.00228 7.34566 2.70084 8.04422 2.911 8.93022H1.11628ZM14.8837 8.93022H13.089C13.2992 8.04422 13.9977 7.34566 14.8837 7.1355V8.93022ZM14.8837 5.99772C13.3807 6.23712 12.1906 7.42722 11.9512 8.93022H4.04878C3.80938 7.42722 2.61928 6.23712 1.11628 5.99772V4.04881C2.61928 3.80941 3.80938 2.61928 4.04878 1.11631H11.9512C12.1906 2.61931 13.3807 3.80941 14.8837 4.04881V5.99772ZM14.8837 2.911C13.9977 2.70084 13.2992 2.00228 13.089 1.11628H14.8837V2.911Z" fill="white"/>
</svg>
