<svg width="5" height="5" viewBox="0 0 5 5" fill="none" xmlns="http://www.w3.org/2000/svg">
<path d="M2.66196 0.438477C1.42961 0.438477 0.427008 1.29331 0.427008 2.34407C0.427008 2.71143 0.549707 3.06721 0.782217 3.37479C0.738188 3.83615 0.620182 4.17867 0.448836 4.34092C0.426188 4.36238 0.420527 4.3952 0.43483 4.4223C0.44757 4.44651 0.473569 4.4614 0.501506 4.4614C0.504933 4.4614 0.508435 4.46119 0.511936 4.46069C0.542108 4.45667 1.24299 4.36104 1.74988 4.08395C2.03781 4.19398 2.34445 4.24967 2.66196 4.24967C3.89432 4.24967 4.89692 3.39483 4.89692 2.34407C4.89692 1.29331 3.89432 0.438477 2.66196 0.438477Z" fill="white"/>
</svg>
